<?xml version="1.0" encoding="UTF-8" standalone="no"?>
<svg
   id="dog"
   width="640"
   height="512"
   version="1.1"
   viewBox="0 0 169.3325 135.466"
   sodipodi:docname="cover.svg"
   inkscape:version="1.1.2 (76b9e6a115, 2022-02-25)"
   xmlns:inkscape="http://www.inkscape.org/namespaces/inkscape"
   xmlns:sodipodi="http://sodipodi.sourceforge.net/DTD/sodipodi-0.dtd"
   xmlns="http://www.w3.org/2000/svg"
   xmlns:svg="http://www.w3.org/2000/svg">
  <defs
     id="defs38907" />
  <sodipodi:namedview
     id="namedview38905"
     pagecolor="#ffffff"
     bordercolor="#666666"
     borderopacity="1.0"
     inkscape:pageshadow="2"
     inkscape:pageopacity="0.0"
     inkscape:pagecheckerboard="0"
     showgrid="false"
     inkscape:zoom="0.5"
     inkscape:cx="-45"
     inkscape:cy="-109"
     inkscape:window-width="1920"
     inkscape:window-height="1015"
     inkscape:window-x="1920"
     inkscape:window-y="0"
     inkscape:window-maximized="1"
     inkscape:current-layer="dog"
     height="512px"
     inkscape:snap-page="true" />
  <rect
     style="fill:#b8c1ca;fill-opacity:1;stroke:none;stroke-width:0.132291;stroke-linecap:round;stroke-miterlimit:4;stroke-dasharray:none;paint-order:markers stroke fill"
     id="rect53410"
     width="169.3325"
     height="135.466"
     x="-1.5164353e-14"
     y="-8.386009e-15"
     ry="1.1375943" />
  <ellipse
     style="fill:#ffffff;fill-opacity:1;stroke:#010101;stroke-width:0.132291;stroke-linecap:round;stroke-miterlimit:4;stroke-dasharray:none;paint-order:markers stroke fill"
     id="path53138"
     cx="50.189144"
     cy="44.1791"
     rx="34.792744"
     ry="14.187626" />
  <g
     id="eye_right"
     transform="matrix(1.8,0,0,1.8,-7.3141358,8.8069167)">
    <ellipse
       cx="39.807999"
       cy="20.91"
       rx="2.0627999"
       ry="2.3850999"
       fill="#23180e"
       stroke-width="0.52917"
       style="paint-order:markers stroke fill"
       id="ellipse38827" />
    <ellipse
       cx="39.937"
       cy="19.799999"
       rx="1.2891999"
       ry="0.82189"
       fill="#fefefd"
       style="paint-order:normal"
       id="ellipse38829" />
  </g>
  <g
     id="eye_left"
     transform="matrix(1.8,0,0,1.8,-10.449599,7.9637636)">
    <ellipse
       cx="27.563"
       cy="21.315001"
       rx="2.0627999"
       ry="2.3850999"
       fill="#23180e"
       stroke-width="0.52917"
       style="paint-order:markers stroke fill"
       id="ellipse38832" />
    <ellipse
       cx="27.691999"
       cy="20.205"
       rx="1.2891999"
       ry="0.82189"
       fill="#fefefd"
       style="paint-order:normal"
       id="ellipse38834" />
  </g>
  <path
     id="tail"
     d="m 36.932595,113.65943 c -4.3119,1.23711 -21.6,-23.394596 -18.1476,-31.399196 1.8243,3.79854 16.10514,21.652206 22.1832,15.698702"
     fill="#ba8147"
     stroke="#000000"
     stroke-width="0.952506"
     style="paint-order:normal" />
  <g
     transform="matrix(1.8,0,0,1.8,-12.043605,-404.87017)"
     id="g38872">
    <g
       stroke="#000000"
       id="g38850">
      <path
         d="m 20.285,284.34 c -0.5982,-0.41271 -0.67126,-0.97243 -1.8936,-0.79137 -0.7385,0.10943 -0.99711,0.80933 -1.222,0.89036 -0.2563,-0.0611 -1.0155,-0.54827 -1.5643,-0.52027 -1.8923,0.0965 -1.3289,2.1688 -1.6467,2.1678 -2.2261,-0.007 -1.7721,2.0654 -1.4203,2.6911 1.6236,2.8877 2.6325,3.1885 3.8678,3.6029 1.5391,0.51631 3.1441,-0.30204 4.687,-1.3231"
         fill="#ba8147"
         stroke-width="0.54148"
         id="path38838" />
      <g
         stroke-width="0.52917"
         id="g38848">
        <path
           d="m 17.17,284.44 c 0.59548,-0.24813 -0.17977,1.2638 0.34599,1.8171"
           fill="none"
           id="path38840" />
        <path
           d="m 14.036,285.94 c 0.0838,0.66335 0.4793,1.2018 0.71419,1.449"
           fill="none"
           id="path38842" />
        <path
           d="m 48.841,283.5 c 0.51878,-0.50895 0.49502,-1.0729 1.7304,-1.1036 0.74633,-0.0185 1.1209,0.62683 1.3563,0.66821 0.24206,-0.1041 0.90677,-0.7139 1.4523,-0.78019 1.8809,-0.2286 1.6803,1.9096 1.9932,1.8542 2.1921,-0.38759 1.9015,1.6918 1.8597,2.4085 -0.17256,2.9608 -1.6263,3.2764 -3.1716,3.9696 -1.4824,0.66495 -3.1724,0.48202 -4.8672,-0.26003"
           fill="#ba8147"
           id="path38844" />
        <path
           d="m 23.871,265.48 c -2.1272,3.4877 -2.9542,5.6362 -3.3905,8.7261 -0.8916,6.3139 -0.80073,13.195 1.7199,19.052 0.5619,1.3057 1.4629,2.7777 2.8207,3.1983 2.148,0.66538 4.9343,-0.0776 6.5408,-1.651 0.91808,-0.89921 0.21538,-2.7164 1.021,-3.7176 0.41724,-0.51857 1.1155,-0.79566 1.7676,-0.9287 0.91142,-0.18592 2.0725,-0.37579 2.7813,0.22658 1.1598,0.98569 0.03541,3.344 1.0999,4.4319 1.4191,1.4504 3.8459,1.6221 5.8749,1.5946 1.5465,-0.021 3.4485,-0.15195 4.4433,-1.3362 1.0803,-1.286 0.61281,-3.3237 0.59658,-5.0032 -0.05299,-5.4843 -0.6599,-11.052 -2.2634,-16.297 -0.92824,-3.0361 0.86409,-3.476 -4.1892,-8.5538"
           fill="#ba8147"
           id="path38846" />
      </g>
    </g>
    <g
       fill="none"
       stroke="#000000"
       stroke-width="0.52917"
       id="g38868">
      <path
         d="m 26.321,296.61 c 0.48905,-2.4643 -0.63538,-4.5206 -2.0628,-6.285"
         id="path38852" />
      <path
         d="m 29.93,296 c -1.2773,-2.549 -0.04018,-3.817 -1.8372,-5.6404"
         id="path38854" />
      <path
         d="m 30.253,280.47 c 2.631,2.7275 2.1979,6.5091 3.1561,8.8735 -0.31275,0.91611 -0.30999,0.98175 -0.87938,1.8227"
         id="path38856" />
      <path
         d="m 38.49,281.77 c -2.631,2.7275 -0.7393,5.1416 -1.6975,7.506 0.31275,0.91611 0.30999,0.98175 0.87938,1.8227"
         id="path38858" />
      <path
         d="m 43.853,296.43 c 0.23566,-2.1019 1.3693,-4.1536 2.0628,-6.285"
         id="path38860" />
      <path
         d="m 40.824,296.18 c 0.95793,-2.6853 -0.42415,-3.7936 1.1378,-5.8219"
         id="path38862" />
      <path
         d="m 51.928,283.06 c -0.62914,-0.14262 0.3933,1.2144 -0.03007,1.8495"
         id="path38864" />
      <path
         d="m 55.271,284 c 0.0309,0.66791 -0.26667,1.266 -0.45582,1.5498"
         id="path38866" />
    </g>
    <path
       d="m 26.51,265.58 c -0.13242,0.83347 -3.2375,0.2077 -3.6713,2.3167 5.0002,3.9771 17.192,3.2874 21.468,-0.58395 -1.0538,-1.0509 -0.15808,-1.7983 -1.6128,-2.0908"
       fill="#79542e"
       id="path38870" />
  </g>
  <g
     id="head"
     transform="matrix(1.8,0,0,1.8,-12.043605,7.8158335)">
    <path
       transform="translate(0,-229.27)"
       d="m 23.836,265.51 c -0.47673,0.97441 -0.16874,0.38217 -0.7417,1.3364 -0.07206,0.43542 0.83619,0.64079 2.8442,1.215 4.94,0.97472 9.8319,1.1865 14.906,0 1.5915,-0.6838 2.6112,-1.1529 3.2121,-1.4659 0.21533,-0.11217 -1.7492,-1.8816 -1.6345,-1.9563"
       fill="#2e4279"
       stroke="#000000"
       stroke-width="0.26458px"
       id="path38874" />
    <path
       transform="translate(0,-229.27)"
       d="m 34.018,269.36 c 1.2284,0.0472 1.0867,-0.56697 1.0867,-0.56697 v -0.56696 l -0.99219,-0.23624 z"
       fill="#b9b9b9"
       stroke="#b4b4b4"
       stroke-width="0.26458px"
       id="path38876" />
    <rect
       transform="matrix(0.99537,-0.096164,0,1,0,-229.27)"
       x="32.250999"
       y="272.39999"
       width="5.0078001"
       height="2.8090999"
       ry="0.30098999"
       fill="#9d9d9d"
       stroke="#707070"
       stroke-linecap="round"
       stroke-linejoin="bevel"
       stroke-width="0.20247"
       style="paint-order:normal"
       id="rect38878" />
    <g
       aria-label="Gogo"
       transform="matrix(0.96088589,-0.14616089,0,1.0407063,0,0)"
       id="text38882"
       style="font-size:2.32789px;line-height:1.25;font-family:'Liberation Sans';text-align:center;text-anchor:middle;fill:#818181;stroke-width:0.162444;stroke-linecap:round;stroke-linejoin:bevel">
      <path
         d="m 33.742264,44.498396 q 0,-0.319214 0.17124,-0.494177 0.171241,-0.174963 0.481149,-0.174963 0.217773,0 0.353648,0.07352 0.135876,0.07352 0.209397,0.235456 l -0.169379,0.05025 q -0.05584,-0.111678 -0.154488,-0.162864 -0.09772,-0.05119 -0.243832,-0.05119 -0.227079,0 -0.347134,0.137737 -0.120054,0.136806 -0.120054,0.386221 0,0.248485 0.127499,0.392736 0.1275,0.143321 0.352718,0.143321 0.128431,0 0.239179,-0.03909 0.111678,-0.03909 0.180546,-0.106095 V 44.652885 H 34.430948 V 44.50398 h 0.555601 v 0.452298 q -0.104234,0.106095 -0.25593,0.164726 -0.150766,0.0577 -0.327591,0.0577 -0.205674,0 -0.354579,-0.0819 -0.148905,-0.0819 -0.22801,-0.235456 -0.07818,-0.154488 -0.07818,-0.362955 z"
         style="font-size:1.90598px;stroke:#484848;paint-order:markers stroke fill"
         id="path42050" />
      <path
         d="m 36.108918,44.655677 q 0,0.264306 -0.116332,0.393667 -0.116332,0.12936 -0.337828,0.12936 -0.220565,0 -0.333174,-0.134014 -0.112609,-0.134945 -0.112609,-0.389013 0,-0.521167 0.451367,-0.521167 0.230803,0 0.339689,0.1275 0.108887,0.126569 0.108887,0.393667 z m -0.175894,0 q 0,-0.208467 -0.06235,-0.302463 -0.06142,-0.09493 -0.207536,-0.09493 -0.147043,0 -0.21312,0.09679 -0.06515,0.09586 -0.06515,0.300602 0,0.19916 0.06421,0.29967 0.06515,0.09958 0.203813,0.09958 0.150766,0 0.214981,-0.09679 0.06515,-0.09679 0.06515,-0.302462 z"
         style="font-size:1.90598px;stroke:#484848;paint-order:markers stroke fill"
         id="path42052" />
      <path
         d="m 36.698952,45.555619 q -0.164725,0 -0.262444,-0.06515 -0.09772,-0.06421 -0.125638,-0.183339 l 0.168448,-0.0242 q 0.01675,0.0698 0.07352,0.107025 0.0577,0.03816 0.150766,0.03816 0.250346,0 0.250346,-0.293156 V 44.97303 h -0.0019 q -0.04746,0.09679 -0.130291,0.146113 -0.08283,0.04839 -0.193576,0.04839 -0.1852,0 -0.272682,-0.122847 -0.08655,-0.122846 -0.08655,-0.386221 0,-0.267098 0.09307,-0.393667 0.094,-0.1275 0.28478,-0.1275 0.107025,0 0.1852,0.04933 0.07911,0.04839 0.121916,0.138667 h 0.0019 q 0,-0.02792 0.0037,-0.09679 0.0037,-0.06887 0.0074,-0.07538 h 0.159142 q -0.0056,0.05026 -0.0056,0.208467 v 0.769651 q 0,0.424378 -0.421587,0.424378 z m 0.255,-0.899012 q 0,-0.122846 -0.0335,-0.211258 -0.0335,-0.08934 -0.09493,-0.135876 -0.06049,-0.04746 -0.137736,-0.04746 -0.128431,0 -0.187062,0.09307 -0.05863,0.09307 -0.05863,0.301532 0,0.206606 0.05491,0.296879 0.05491,0.09027 0.187993,0.09027 0.0791,0 0.140528,-0.04653 0.06142,-0.04653 0.09493,-0.133084 0.0335,-0.08748 0.0335,-0.207536 z"
         style="font-size:1.90598px;stroke:#484848;paint-order:markers stroke fill"
         id="path42054" />
      <path
         d="m 38.228948,44.655677 q 0,0.264306 -0.116332,0.393667 -0.116331,0.12936 -0.337827,0.12936 -0.220565,0 -0.333174,-0.134014 -0.11261,-0.134945 -0.11261,-0.389013 0,-0.521167 0.451368,-0.521167 0.230802,0 0.339689,0.1275 0.108886,0.126569 0.108886,0.393667 z m -0.175894,0 q 0,-0.208467 -0.06235,-0.302463 -0.06142,-0.09493 -0.207536,-0.09493 -0.147044,0 -0.21312,0.09679 -0.06515,0.09586 -0.06515,0.300602 0,0.19916 0.06421,0.29967 0.06515,0.09958 0.203813,0.09958 0.150766,0 0.214982,-0.09679 0.06515,-0.09679 0.06515,-0.302462 z"
         style="font-size:1.90598px;stroke:#484848;paint-order:markers stroke fill"
         id="path42056" />
    </g>
    <g
       transform="translate(0.59104,-229.19)"
       id="g38901">
      <g
         fill="#ba8147"
         stroke="#000000"
         stroke-width="0.52917"
         id="g38890">
        <path
           transform="matrix(0.26458,0,0,0.26458,-0.59104,229.19)"
           d="m 125.17,5.1621 c -9.114,0 -24.798,1.7274 -32.527,3.6621 -35.538,8.8971 -46.23,34.67 -46.23,67.639 0,26.02 12.67,48.846 35.482,61.686 12.379,6.9666 27.499,6.1211 45.445,6.1211 19.177,0 35.717,0.34377 48.59,-7.4394 21.377,-12.922 33.314,-34.826 33.314,-59.879 l -0.002,-0.002 c 0,-34.094 -14.529,-60.99 -52.453,-68.939 C 150.0656,6.6016 132.853,5.1632 125.17,5.1632 Z m 28.854,55.779 a 17.193,14.65 0 0 1 17.193,14.65 17.193,14.65 0 0 1 -17.193,14.648 17.193,14.65 0 0 1 -17.191,-14.648 17.193,14.65 0 0 1 17.191,-14.65 z m -55.127,2.2441 a 17.716,16.034 0 0 1 17.715,16.033 17.716,16.034 0 0 1 -17.715,16.035 17.716,16.034 0 0 1 -17.717,-16.035 17.716,16.034 0 0 1 17.717,-16.033 z"
           stroke-width="2"
           style="paint-order:normal"
           id="path38884" />
        <path
           d="m 11.421,241.27 c 0.84516,1.3466 7.9804,7.0932 8.0299,7.0438 1.1328,-1.1328 -0.39004,-14.337 -0.98612,-14.933 -1.6859,-1.6859 -7.2364,7.1184 -7.0437,7.889 z"
           stroke-linecap="round"
           stroke-linejoin="bevel"
           stroke-miterlimit="1"
           style="paint-order:normal"
           id="path38886" />
        <path
           d="m 53.312,241.51 c -0.70544,1.3466 -6.6611,7.0933 -6.7025,7.0438 -0.94553,-1.1328 0.32557,-14.337 0.82311,-14.933 1.4072,-1.6859 6.0402,7.1184 5.8794,7.889 z"
           stroke-linecap="round"
           stroke-linejoin="bevel"
           stroke-miterlimit="1"
           style="paint-order:normal"
           id="path38888" />
      </g>
      <path
         d="m 24.901,259.98 c 7.189,-0.57151 16.208,1.3943 19.93,-1.1824"
         fill="none"
         stroke="#000000"
         stroke-width="0.36099px"
         id="path38892" />
      <path
         id="tongue"
         d="m 29.656,260.06 c 2.0588,0.69335 2.1599,2.7055 3.3677,3.9133 2.1139,2.114 4.2481,0.31419 5.5987,-1.6265 0.47887,-0.68809 0.58576,-1.6442 0.83182,-2.0133"
         fill="#e20000"
         stroke="#000000"
         stroke-width="0.36099px" />
      <path
         d="m 35.977,255.38 c 3e-6,0.83074 -1.2422,2.2335 -2.3246,2.2335 -1.0825,0 -2.2335,-1.1748 -2.2335,-2.0056 7e-6,-0.83073 0.92311,-0.72929 2.0056,-0.72929 1.0825,0 2.5525,-0.32934 2.5526,0.50139 z"
         fill="#0f0f0f"
         style="paint-order:markers stroke fill"
         id="path38895" />
      <path
         d="m 21.87,242.85 c 1.931,-0.33178 4.0368,-1.3962 5.8799,-0.93544"
         fill="none"
         stroke="#000000"
         stroke-width="0.13229"
         id="path38897" />
      <path
         d="m 37.506,241.38 c 1.5307,-0.68548 5.8873,-0.79082 6.6817,0.4009"
         fill="none"
         stroke="#000000"
         stroke-width="0.13229"
         id="path38899" />
    </g>
  </g>
  <text
     xml:space="preserve"
     style="font-weight:bold;font-size:25.3999px;line-height:1.05;font-family:'Liberation Sans';-inkscape-font-specification:'Liberation Sans Bold';text-align:center;text-anchor:middle;fill:#1b1d1f;fill-opacity:1;stroke:#010101;stroke-width:0.132291;stroke-linecap:round;stroke-miterlimit:4;stroke-dasharray:none;paint-order:markers stroke fill"
     x="129.06511"
     y="56.617123"
     id="text46520"><tspan
       sodipodi:role="line"
       id="tspan46518"
       style="font-size:25.3999px;fill:#1b1d1f;fill-opacity:1;stroke-width:0.132291"
       x="129.06511"
       y="56.617123">Save</tspan><tspan
       sodipodi:role="line"
       style="font-size:25.3999px;fill:#1b1d1f;fill-opacity:1;stroke-width:0.132291"
       x="129.06511"
       y="83.287018"
       id="tspan48342">Gogo</tspan></text>
  <g
     transform="matrix(2.6419358,-1.0663127,1.0663127,2.6419358,-196.76468,-642.01711)"
     id="g1172">
    <path
       d="m 3.8685,288.08 6.5882,4.8684 c 0,0 0.39594,2.9012 1.5178,3.028 1.1364,0.12844 3.0898,-0.90943 2.1833,-2.6467 2.0784,0.16608 2.5347,-1.7506 2.1181,-2.862 -0.4684,-1.2496 -3.91,-0.85953 -3.91,-0.85953 l -5.5561,-4.6438 c 0.047954,-0.0213 -0.1842,-3.584 -1.7427,-3.5625 -1.2735,0.0176 -2.8252,1.0618 -2.2191,3.2328 -1.7097,0.21701 -2.6807,0.99615 -2.5612,2.2032 0.5614,2.2516 3.5818,1.2421 3.5818,1.2421 z"
       fill="#d9a026"
       stroke="#000000"
       stroke-width="0.24783px"
       id="path1146" />
    <path
       d="m 15.957,290.36 c -0.66634,-0.66942 -1.8618,-0.41453 -2.8061,-0.3936 -0.88479,0.0196 -2.3574,-0.36314 -2.6103,0.48494 -0.22597,0.7576 1.0414,1.2235 1.7135,1.6398 0.63711,0.39459 1.3723,0.85995 2.1153,0.76164 0.70868,-0.0938 1.472,-0.57178 1.7594,-1.2264 0.17124,-0.39008 0.12885,-0.96451 -0.17168,-1.2664 z"
       fill-opacity="0.090167"
       id="path1148" />
    <path
       d="m 3.4329,286.85 c 0.89194,-0.56391 1.3689,-1.6328 2.4655,-1.9277 l 0.12979,-0.0408"
       fill="none"
       stroke="#ecce90"
       stroke-width="0.26458"
       style="mix-blend-mode:lighten"
       id="path1150" />
    <path
       d="m 4.8034,287.35 c 0.44891,-0.65352 1.3023,-0.70892 1.9594,-1.0953 l 0.14014,-0.0473"
       fill="none"
       stroke="#ecce90"
       stroke-width="0.26458"
       style="mix-blend-mode:lighten"
       id="path1152" />
    <path
       d="m 7.5096,288.57 c -0.44899,-0.3734 -0.52425,-1.1653 -1.0618,-1.3935 -0.52301,-0.22206 -1.5023,-0.33686 -1.693,0.19839 -0.15247,0.42803 0.65141,0.63519 0.94866,0.97884 0.38453,0.44457 0.51255,1.2303 1.0763,1.3968 0.61179,0.18076 1.7636,-0.001 1.8044,-0.63775 0.025676,-0.40048 -0.76601,-0.28626 -1.0746,-0.54285 z"
       fill-opacity="0.090167"
       id="path1154" />
    <g
       fill="none"
       stroke="#ecce90"
       stroke-width="0.26458"
       id="g1162">
      <path
         d="m 6.5823,289.26 c 0.40651,-0.36671 0.48916,-1.0544 1.2701,-0.84807 0.44134,0.019 0.67156,-0.35387 1.0336,-0.50097"
         style="mix-blend-mode:lighten"
         id="path1156" />
      <path
         d="m 8.6235,291.14 c 0.57526,-0.31599 1.483,-0.27104 1.6588,-1.0323 0.12552,-0.30982 0.34456,-0.61205 0.70323,-0.70221"
         style="mix-blend-mode:lighten"
         id="path1158" />
      <path
         d="m 11.015,293.75 c 0.40992,-0.7018 0.99272,-1.3215 1.2002,-2.1191 0.16346,-0.4305 0.36884,-0.86332 0.72441,-1.1847"
         id="path1160" />
    </g>
    <g
       fill-opacity="0.22447"
       id="g1170">
      <path
         d="m 4.8657,282.82 c -0.30692,-0.20201 -0.9487,0.0416 -1.0269,0.40065 -0.096734,0.44395 0.51421,1.1119 0.94866,0.97884 0.19264,-0.059 0.091258,-0.39417 0.10542,-0.59514 0.01839,-0.26096 0.19137,-0.64052 -0.027153,-0.78435 z"
         id="path1164" />
      <path
         d="m 8.3276,286.25 c -0.30692,-0.20201 -0.9487,0.0416 -1.0269,0.40065 -0.096734,0.44395 0.51421,1.1119 0.94866,0.97884 0.19264,-0.059 0.091258,-0.39417 0.10542,-0.59514 0.01839,-0.26096 0.19137,-0.64052 -0.027153,-0.78435 z"
         id="path1166" />
      <path
         d="m 12.562,293.09 c -0.30692,-0.20201 -0.9487,0.0416 -1.0269,0.40065 -0.09673,0.44395 0.51421,1.1119 0.94866,0.97884 0.19264,-0.059 0.09126,-0.39417 0.10542,-0.59514 0.01839,-0.26096 0.19137,-0.64052 -0.02715,-0.78435 z"
         id="path1168" />
    </g>
  </g>
</svg>
