<svg id="dog" width="256" height="256" version="1.1" viewBox="0 0 67.733 67.733" xmlns="http://www.w3.org/2000/svg">
<g id="eye_right" transform="translate(.21591 -.54518)">
<ellipse cx="39.808" cy="20.91" rx="2.0628" ry="2.3851" fill="#23180e" stroke-width=".52917" style="paint-order:markers stroke fill"/>
<ellipse cx="39.937" cy="19.8" rx="1.2892" ry=".82189" fill="#fefefd" style="paint-order:normal"/>
</g>
<g id="eye_left" transform="translate(-1.0945 -.34323)">
<ellipse cx="27.563" cy="21.315" rx="2.0628" ry="2.3851" fill="#23180e" stroke-width=".52917" style="paint-order:markers stroke fill"/>
<ellipse cx="27.692" cy="20.205" rx="1.2892" ry=".82189" fill="#fefefd" style="paint-order:normal"/>
</g>
<path id="tail" d="m27.209 58.802c-2.3955 0.68728-12-12.997-10.082-17.444 1.0135 2.1103 8.9473 12.029 12.324 8.7215" fill="#ba8147" stroke="#000" stroke-width=".52917" style="paint-order:normal"/>
<g transform="translate(0 -229.27)">
<g stroke="#000">
<path d="m20.285 284.34c-0.5982-0.41271-0.67126-0.97243-1.8936-0.79137-0.7385 0.10943-0.99711 0.80933-1.222 0.89036-0.2563-0.0611-1.0155-0.54827-1.5643-0.52027-1.8923 0.0965-1.3289 2.1688-1.6467 2.1678-2.2261-7e-3 -1.7721 2.0654-1.4203 2.6911 1.6236 2.8877 2.6325 3.1885 3.8678 3.6029 1.5391 0.51631 3.1441-0.30204 4.687-1.3231" fill="#ba8147" stroke-width=".54148"/>
<g stroke-width=".52917">
<path d="m17.17 284.44c0.59548-0.24813-0.17977 1.2638 0.34599 1.8171" fill="none"/>
<path d="m14.036 285.94c0.0838 0.66335 0.4793 1.2018 0.71419 1.449" fill="none"/>
<path d="m48.841 283.5c0.51878-0.50895 0.49502-1.0729 1.7304-1.1036 0.74633-0.0185 1.1209 0.62683 1.3563 0.66821 0.24206-0.1041 0.90677-0.7139 1.4523-0.78019 1.8809-0.2286 1.6803 1.9096 1.9932 1.8542 2.1921-0.38759 1.9015 1.6918 1.8597 2.4085-0.17256 2.9608-1.6263 3.2764-3.1716 3.9696-1.4824 0.66495-3.1724 0.48202-4.8672-0.26003" fill="#ba8147"/>
<path d="m23.871 265.48c-2.1272 3.4877-2.9542 5.6362-3.3905 8.7261-0.8916 6.3139-0.80073 13.195 1.7199 19.052 0.5619 1.3057 1.4629 2.7777 2.8207 3.1983 2.148 0.66538 4.9343-0.0776 6.5408-1.651 0.91808-0.89921 0.21538-2.7164 1.021-3.7176 0.41724-0.51857 1.1155-0.79566 1.7676-0.9287 0.91142-0.18592 2.0725-0.37579 2.7813 0.22658 1.1598 0.98569 0.03541 3.344 1.0999 4.4319 1.4191 1.4504 3.8459 1.6221 5.8749 1.5946 1.5465-0.021 3.4485-0.15195 4.4433-1.3362 1.0803-1.286 0.61281-3.3237 0.59658-5.0032-0.05299-5.4843-0.6599-11.052-2.2634-16.297-0.92824-3.0361 0.86409-3.476-4.1892-8.5538" fill="#ba8147"/>
</g>
</g>
<g fill="none" stroke="#000" stroke-width=".52917">
<path d="m26.321 296.61c0.48905-2.4643-0.63538-4.5206-2.0628-6.285"/>
<path d="m29.93 296c-1.2773-2.549-0.04018-3.817-1.8372-5.6404"/>
<path d="m30.253 280.47c2.631 2.7275 2.1979 6.5091 3.1561 8.8735-0.31275 0.91611-0.30999 0.98175-0.87938 1.8227"/>
<path d="m38.49 281.77c-2.631 2.7275-0.7393 5.1416-1.6975 7.506 0.31275 0.91611 0.30999 0.98175 0.87938 1.8227"/>
<path d="m43.853 296.43c0.23566-2.1019 1.3693-4.1536 2.0628-6.285"/>
<path d="m40.824 296.18c0.95793-2.6853-0.42415-3.7936 1.1378-5.8219"/>
<path d="m51.928 283.06c-0.62914-0.14262 0.3933 1.2144-0.03007 1.8495"/>
<path d="m55.271 284c0.0309 0.66791-0.26667 1.266-0.45582 1.5498"/>
</g>
<path d="m26.51 265.58c-0.13242 0.83347-3.2375 0.2077-3.6713 2.3167 5.0002 3.9771 17.192 3.2874 21.468-0.58395-1.0538-1.0509-0.15808-1.7983-1.6128-2.0908" fill="#79542e"/>
</g>
<g id="head">
<path transform="translate(0 -229.27)" d="m23.836 265.51c-0.47673 0.97441-0.16874 0.38217-0.7417 1.3364-0.07206 0.43542 0.83619 0.64079 2.8442 1.215 4.94 0.97472 9.8319 1.1865 14.906 0 1.5915-0.6838 2.6112-1.1529 3.2121-1.4659 0.21533-0.11217-1.7492-1.8816-1.6345-1.9563" fill="#2e4279" stroke="#000" stroke-width=".26458px"/>
<path transform="translate(0 -229.27)" d="m34.018 269.36c1.2284 0.0472 1.0867-0.56697 1.0867-0.56697v-0.56696l-0.99219-0.23624z" fill="#b9b9b9" stroke="#b4b4b4" stroke-width=".26458px"/>
<rect transform="matrix(.99537 -.096164 0 1 0 -229.27)" x="32.251" y="272.4" width="5.0078" height="2.8091" ry=".30099" fill="#9d9d9d" stroke="#707070" stroke-linecap="round" stroke-linejoin="bevel" stroke-width=".20247" style="paint-order:normal"/>
<g transform="matrix(.96089 -.14616 0 1.0407 0 0)" fill="#818181" stroke="#484848" stroke-linecap="round" stroke-linejoin="bevel" stroke-width=".16244" aria-label="Gogo">
<path d="m33.742 44.498q0-0.31921 0.17124-0.49418 0.17124-0.17496 0.48115-0.17496 0.21777 0 0.35365 0.07352 0.13588 0.07352 0.2094 0.23546l-0.16938 0.05025q-0.05584-0.11168-0.15449-0.16286-0.09772-0.05119-0.24383-0.05119-0.22708 0-0.34713 0.13774-0.12005 0.13681-0.12005 0.38622 0 0.24848 0.1275 0.39274 0.1275 0.14332 0.35272 0.14332 0.12843 0 0.23918-0.03909 0.11168-0.03909 0.18055-0.1061v-0.23637h-0.3918v-0.1489h0.5556v0.4523q-0.10423 0.1061-0.25593 0.16473-0.15077 0.0577-0.32759 0.0577-0.20567 0-0.35458-0.0819t-0.22801-0.23546q-0.07818-0.15449-0.07818-0.36296z" style="paint-order:markers stroke fill"/>
<path d="m36.109 44.656q0 0.26431-0.11633 0.39367-0.11633 0.12936-0.33783 0.12936-0.22056 0-0.33317-0.13401-0.11261-0.13494-0.11261-0.38901 0-0.52117 0.45137-0.52117 0.2308 0 0.33969 0.1275 0.10889 0.12657 0.10889 0.39367zm-0.17589 0q0-0.20847-0.06235-0.30246-0.06142-0.09493-0.20754-0.09493-0.14704 0-0.21312 0.09679-0.06515 0.09586-0.06515 0.3006 0 0.19916 0.06421 0.29967 0.06515 0.09958 0.20381 0.09958 0.15077 0 0.21498-0.09679 0.06515-0.09679 0.06515-0.30246z" style="paint-order:markers stroke fill"/>
<path d="m36.699 45.556q-0.16472 0-0.26244-0.06515-0.09772-0.06421-0.12564-0.18334l0.16845-0.0242q0.01675 0.0698 0.07352 0.10702 0.0577 0.03816 0.15077 0.03816 0.25035 0 0.25035-0.29316v-0.16193h-0.0019q-0.04746 0.09679-0.13029 0.14611-0.08283 0.04839-0.19358 0.04839-0.1852 0-0.27268-0.12285-0.08655-0.12285-0.08655-0.38622 0-0.2671 0.09307-0.39367 0.094-0.1275 0.28478-0.1275 0.10702 0 0.1852 0.04933 0.07911 0.04839 0.12192 0.13867h0.0019q0-0.02792 0.0037-0.09679t0.0074-0.07538h0.15914q-0.0056 0.05026-0.0056 0.20847v0.76965q0 0.42438-0.42159 0.42438zm0.255-0.89901q0-0.12285-0.0335-0.21126-0.0335-0.08934-0.09493-0.13588-0.06049-0.04746-0.13774-0.04746-0.12843 0-0.18706 0.09307-0.05863 0.09307-0.05863 0.30153 0 0.20661 0.05491 0.29688 0.05491 0.09027 0.18799 0.09027 0.0791 0 0.14053-0.04653 0.06142-0.04653 0.09493-0.13308 0.0335-0.08748 0.0335-0.20754z" style="paint-order:markers stroke fill"/>
<path d="m38.229 44.656q0 0.26431-0.11633 0.39367-0.11633 0.12936-0.33783 0.12936-0.22056 0-0.33317-0.13401-0.11261-0.13494-0.11261-0.38901 0-0.52117 0.45137-0.52117 0.2308 0 0.33969 0.1275 0.10889 0.12657 0.10889 0.39367zm-0.17589 0q0-0.20847-0.06235-0.30246-0.06142-0.09493-0.20754-0.09493-0.14704 0-0.21312 0.09679-0.06515 0.09586-0.06515 0.3006 0 0.19916 0.06421 0.29967 0.06515 0.09958 0.20381 0.09958 0.15077 0 0.21498-0.09679 0.06515-0.09679 0.06515-0.30246z" style="paint-order:markers stroke fill"/>
</g>
<g transform="translate(.59104 -229.19)">
<g stroke="#000">
<g fill="#ba8147" stroke-width=".52917">
<path transform="matrix(.26458 0 0 .26458 -.59104 229.19)" d="m125.17 5.1621c-9.114 0-24.798 1.7274-32.527 3.6621-35.538 8.8971-46.23 34.67-46.23 67.639 0 26.02 12.67 48.846 35.482 61.686 12.379 6.9666 27.499 6.1211 45.445 6.1211 19.177 0 35.717 0.34377 48.59-7.4394 21.377-12.922 33.314-34.826 33.314-59.879l-0.00195-0.001953c0-34.094-14.529-60.99-52.453-68.939-6.7234-1.4093-23.936-2.8477-31.619-2.8477zm28.854 55.779a17.193 14.65 0 0 1 17.193 14.65 17.193 14.65 0 0 1-17.193 14.648 17.193 14.65 0 0 1-17.191-14.648 17.193 14.65 0 0 1 17.191-14.65zm-55.127 2.2441a17.716 16.034 0 0 1 17.715 16.033 17.716 16.034 0 0 1-17.715 16.035 17.716 16.034 0 0 1-17.717-16.035 17.716 16.034 0 0 1 17.717-16.033z" stroke-width="2" style="paint-order:normal"/>
<path d="m11.421 241.27c0.84516 1.3466 7.9804 7.0932 8.0299 7.0438 1.1328-1.1328-0.39004-14.337-0.98612-14.933-1.6859-1.6859-7.2364 7.1184-7.0437 7.889z" stroke-linecap="round" stroke-linejoin="bevel" stroke-miterlimit="1" style="paint-order:normal"/>
<path d="m53.312 241.51c-0.70544 1.3466-6.6611 7.0933-6.7025 7.0438-0.94553-1.1328 0.32557-14.337 0.82311-14.933 1.4072-1.6859 6.0402 7.1184 5.8794 7.889z" stroke-linecap="round" stroke-linejoin="bevel" stroke-miterlimit="1" style="paint-order:normal"/>
</g>
<path d="m24.901 259.98c7.189-0.57151 16.208 1.3943 19.93-1.1824" fill="none" stroke-width=".36099px"/>
<path id="tongue" d="m29.656 260.06c2.0588 0.69335 2.1599 2.7055 3.3677 3.9133 2.1139 2.114 4.2481 0.31419 5.5987-1.6265 0.47887-0.68809 0.58576-1.6442 0.83182-2.0133" fill="#e20000" stroke-width=".36099px"/>
</g>
<path d="m35.977 255.38c3e-6 0.83074-1.2422 2.2335-2.3246 2.2335-1.0825 0-2.2335-1.1748-2.2335-2.0056 7e-6 -0.83073 0.92311-0.72929 2.0056-0.72929 1.0825 0 2.5525-0.32934 2.5526 0.50139z" fill="#0f0f0f" style="paint-order:markers stroke fill"/>
<path d="m21.87 242.85c1.931-0.33178 4.0368-1.3962 5.8799-0.93544" fill="none" stroke="#000" stroke-width=".13229"/>
<path d="m37.506 241.38c1.5307-0.68548 5.8873-0.79082 6.6817 0.4009" fill="none" stroke="#000" stroke-width=".13229"/>
</g>
</g>
</svg>
