<svg width="256" height="256" version="1.1" viewBox="0 0 67.733 67.733" xmlns="http://www.w3.org/2000/svg">
<g id="head">
<path d="m6.0435 57.729c0.32995-1.8517 3.0325-2.4378 4.8662-2.8566 3.9972-0.913 8.1597 1.0624 12.26 1.0041 6.2576-0.08898 12.403-2.111 18.661-2.0641 4.5299 0.03398 9.5096-0.47743 13.484 1.6965 2.5207 1.3788 6.5089 3.9237 5.519 6.6209-0.99373 2.7075-5.657 1.1705-8.524 1.4842-8.2739 0.90533-16.621 1.0955-24.944 1.1379-5.3442 0.02723-11.233 1.8026-16.023-0.56736-2.4952-1.2345-5.787-3.7148-5.2987-6.4556z" fill="#451700" stroke="#000" stroke-width=".52916"/>
<g fill="#202830" stroke="#000" stroke-width=".39687">
<path d="m13.975 58.239c-0.16078-0.83584 0-34.396 0-34.396 0-20.663 37.041-20.714 37.041 0v34.396z"/>
<path d="m16.788 60.053c-0.16078-0.83584 0-34.396 0-34.396 0-20.663 37.041-20.714 37.041 0v34.396z"/>
<path d="m13.909 52.91 0.06683 5.3286 2.8122 1.8143-0.0696-6.656"/>
</g>
<path d="m16.364 60.407s3.2957-2.2975 5.2055-2.7465c2.1264-0.49991 4.3672 0.1961 6.5512 0.15521 4.796-0.08979 9.6355-1.6875 14.364-0.87912 2.8591 0.48881 8.0156 3.3869 8.0156 3.3869" fill="#451700" stroke="#000" stroke-width=".26458px"/>
<g transform="matrix(1 -.01914 0 1 1.7773 -1.609)" style="mix-blend-mode:luminosity">
<ellipse cx="33.534" cy="33.943" rx="6.4607" ry="3.0075" fill="#fff"/>
<g transform="matrix(.4213 0 0 .4213 19.305 25.111)">
<g id="eye_right" transform="translate(.21591 -.54518)">
<ellipse cx="39.808" cy="20.91" rx="2.0628" ry="2.3851" fill="#23180e" stroke-width=".52917" style="paint-order:markers stroke fill"/>
<ellipse cx="39.937" cy="19.8" rx="1.2892" ry=".82189" fill="#fefefd" style="paint-order:normal"/>
</g>
<g id="eye_left" transform="translate(-1.0945 -.34323)">
<ellipse cx="27.563" cy="21.315" rx="2.0628" ry="2.3851" fill="#23180e" stroke-width=".52917" style="paint-order:markers stroke fill"/>
<ellipse cx="27.692" cy="20.205" rx="1.2892" ry=".82189" fill="#fefefd" style="paint-order:normal"/>
</g>
<g transform="translate(.59104 -229.19)">
<g fill="#ba8147" stroke="#000" stroke-width=".52917">
<path transform="matrix(.26458 0 0 .26458 -.59104 229.19)" d="m125.17 5.1621c-9.114 0-24.798 1.7274-32.527 3.6621-35.538 8.8971-46.23 34.67-46.23 67.639 0 26.02 12.67 48.846 35.482 61.686 12.379 6.9666 27.499 6.1211 45.445 6.1211 19.177 0 35.717 0.34377 48.59-7.4394 21.377-12.922 33.314-34.826 33.314-59.879l-2e-3 -2e-3c0-34.094-14.529-60.99-52.453-68.939-6.7234-1.4093-23.936-2.8476-31.619-2.8476zm28.854 55.779a17.193 14.65 0 0 1 17.193 14.65 17.193 14.65 0 0 1-17.193 14.648 17.193 14.65 0 0 1-17.191-14.648 17.193 14.65 0 0 1 17.191-14.65zm-55.127 2.2441a17.716 16.034 0 0 1 17.715 16.033 17.716 16.034 0 0 1-17.715 16.035 17.716 16.034 0 0 1-17.717-16.035 17.716 16.034 0 0 1 17.717-16.033z" stroke-width="2" style="paint-order:normal"/>
<path d="m11.421 241.27c0.84516 1.3466 7.9804 7.0932 8.0299 7.0438 1.1328-1.1328-0.39004-14.337-0.98612-14.933-1.6859-1.6859-7.2364 7.1184-7.0437 7.889z" stroke-linecap="round" stroke-linejoin="bevel" stroke-miterlimit="1" style="paint-order:normal"/>
<path d="m53.312 241.51c-0.70544 1.3466-6.6611 7.0933-6.7025 7.0438-0.94553-1.1328 0.32557-14.337 0.82311-14.933 1.4072-1.6859 6.0402 7.1184 5.8794 7.889z" stroke-linecap="round" stroke-linejoin="bevel" stroke-miterlimit="1" style="paint-order:normal"/>
</g>
<path d="m24.901 259.98c7.189-0.57151 16.208 1.3943 19.93-1.1824" fill="none" stroke="#000" stroke-width=".36099px"/>
<path id="tongue" d="m29.656 260.06c2.0588 0.69335 2.1599 2.7055 3.3677 3.9133 2.1139 2.114 4.2481 0.31419 5.5987-1.6265 0.47887-0.68809 0.58576-1.6442 0.83182-2.0133" fill="#e20000" stroke="#000" stroke-width=".36099px"/>
<path d="m35.977 255.38c3e-6 0.83074-1.2422 2.2335-2.3246 2.2335-1.0825 0-2.2335-1.1748-2.2335-2.0056 7e-6 -0.83073 0.92311-0.72929 2.0056-0.72929 1.0825 0 2.5525-0.32934 2.5526 0.50139z" fill="#0f0f0f" style="paint-order:markers stroke fill"/>
<path d="m21.87 242.85c1.931-0.33178 4.0368-1.3962 5.8799-0.93544" fill="none" stroke="#000" stroke-width=".13229"/>
<path d="m37.506 241.38c1.5307-0.68548 5.8873-0.79082 6.6817 0.4009" fill="none" stroke="#000" stroke-width=".13229"/>
</g>
</g>
</g>
<g transform="matrix(1 -.01914 0 1 0 3.9315)" fill="#858d95" stroke="#010101" stroke-linecap="round" stroke-width=".26458" style="paint-order:markers stroke fill" aria-label="Gogo">
<path d="m31.063 41.236q0.25752 0 0.49936-0.0739 0.24184-0.07614 0.37396-0.19258v-0.43666h-0.77032v-0.48817h1.3749v1.16q-0.2508 0.25752-0.65388 0.40307-0.40084 0.14556-0.84198 0.14556-0.77032 0-1.1846-0.42547-0.41427-0.42771-0.41427-1.2115 0-0.77928 0.41651-1.1935 0.41651-0.41651 1.198-0.41651 1.1107 0 1.413 0.82182l-0.60909 0.18362q-0.09853-0.2396-0.30902-0.36277t-0.49489-0.12316q-0.46577 0-0.70762 0.28215t-0.24184 0.80839q0 0.53519 0.24856 0.82854 0.2508 0.29111 0.70314 0.29111z" style="paint-order:markers stroke fill"/>
<path d="m35.447 40.495q0 0.58894-0.32694 0.92483-0.32694 0.33366-0.90468 0.33366-0.56654 0-0.889-0.3359-0.32246-0.3359-0.32246-0.92259 0-0.58446 0.32246-0.91811 0.32246-0.3359 0.90244-0.3359 0.59342 0 0.90468 0.3247 0.3135 0.32246 0.3135 0.92931zm-0.65836 0q0-0.43218-0.14108-0.627t-0.40979-0.19482q-0.57326 0-0.57326 0.82182 0 0.40531 0.13884 0.61805 0.14108 0.21049 0.40531 0.21049 0.57998 0 0.57998-0.82854z" style="paint-order:markers stroke fill"/>
<path d="m36.961 42.68q-0.44338 0-0.71434-0.17019-0.26872-0.16795-0.33142-0.48145l0.62924-0.0739q0.03359 0.14556 0.14332 0.22841 0.11196 0.08285 0.29111 0.08285 0.262 0 0.38292-0.16123 0.12092-0.16123 0.12092-0.47921v-0.12764l0.0045-0.23961h-0.0045q-0.20826 0.44562-0.77928 0.44562-0.42323 0-0.65612-0.31798-0.23289-0.31798-0.23289-0.90916 0-0.59342 0.2396-0.91587 0.2396-0.32246 0.69642-0.32246 0.52848 0 0.73225 0.43666h0.0112q0-0.07838 9e-3 -0.21273 0.0112-0.13436 0.02239-0.1769h0.59566q-0.01344 0.24184-0.01344 0.55983v1.7892q0 0.51728-0.29335 0.78152-0.29335 0.26424-0.85317 0.26424zm0.52624-2.2169q0-0.37396-0.13436-0.58222-0.13212-0.2105-0.37844-0.2105-0.50384 0-0.50384 0.80615 0 0.79047 0.49936 0.79047 0.2508 0 0.38292-0.20826 0.13436-0.21049 0.13436-0.59565z" style="paint-order:markers stroke fill"/>
<path d="m41.05 40.495q0 0.58894-0.32694 0.92483-0.32694 0.33366-0.90468 0.33366-0.56654 0-0.889-0.3359-0.32246-0.3359-0.32246-0.92259 0-0.58446 0.32246-0.91811 0.32246-0.3359 0.90244-0.3359 0.59342 0 0.90468 0.3247 0.3135 0.32246 0.3135 0.92931zm-0.65836 0q0-0.43218-0.14108-0.627t-0.40979-0.19482q-0.57326 0-0.57326 0.82182 0 0.40531 0.13884 0.61805 0.14108 0.21049 0.40531 0.21049 0.57998 0 0.57998-0.82854z" style="paint-order:markers stroke fill"/>
</g>
</g>
</svg>
