<svg width="64" height="64" version="1.1" viewBox="0 0 16.933 16.933" xmlns="http://www.w3.org/2000/svg">
<g transform="translate(0 -280.07)">
<g transform="matrix(.8505 0 0 .8505 -.87452 44.111)" stroke="#000">
<path d="m8.2117 280.68c-2.6069-1.1e-4 -4.7202 2.1322-4.7202 4.7625 0.0014 1.8821 1.1012 3.5869 2.8063 4.35v1.9008l-4.3797 0.68042-0.17022 3.7421 12.757 0.0851-0.21255-4.0821-4.4225-0.25533v-1.9562l-0.02186-9.3e-4c1.852-0.69073 3.0822-2.4716 3.0835-4.4639 0-2.6302-2.113-4.7624-4.7197-4.7625z" fill="#6262ff" stroke="#000" stroke-width=".26458px"/>
</g>
<path d="m4.4946 286.94 6.059 4.4774s0.36414 2.6681 1.3959 2.7847c1.0451 0.11812 2.8416-0.83638 2.0079-2.4341 1.9114 0.15274 2.3311-1.61 1.948-2.6321-0.43078-1.1492-3.596-0.79048-3.596-0.79048l-5.1098-4.2708c0.044102-0.0196-0.16941-3.2962-1.6027-3.2764-1.1712 0.0162-2.5982 0.97646-2.0409 2.9731-1.5724 0.19958-2.4654 0.91613-2.3555 2.0262 0.5163 2.0707 3.2941 1.1424 3.2941 1.1424z" fill="#d9a026" stroke="#000" stroke-width=".22792px"/>
<path d="m15.612 289.03c-0.61282-0.61565-1.7123-0.38123-2.5807-0.36199-0.81372 0.018-2.168-0.33397-2.4007 0.44599-0.20782 0.69675 0.95777 1.1253 1.5759 1.5081 0.58594 0.3629 1.2621 0.79088 1.9454 0.70046 0.65176-0.0863 1.3538-0.52585 1.618-1.1278 0.15748-0.35875 0.1185-0.88703-0.15789-1.1647z" fill-opacity=".090167"/>
<path d="m4.0939 285.81c0.8203-0.51862 1.259-1.5016 2.2675-1.7728l0.11936-0.0375" fill="none" stroke="#ecce90" stroke-width=".24333" style="mix-blend-mode:lighten"/>
<path d="m5.3544 286.26c0.41285-0.60102 1.1977-0.65197 1.802-1.0073l0.12888-0.0435" fill="none" stroke="#ecce90" stroke-width=".24333" style="mix-blend-mode:lighten"/>
<path d="m7.8432 287.38c-0.41292-0.3434-0.48214-1.0717-0.97648-1.2816-0.481-0.20422-1.3817-0.3098-1.557 0.18246-0.14022 0.39365 0.59909 0.58417 0.87246 0.90021 0.35364 0.40886 0.47138 1.1315 0.9898 1.2846 0.56265 0.16624 1.6219-9.2e-4 1.6595-0.58652 0.023617-0.36831-0.70448-0.26327-0.98824-0.49925z" fill-opacity=".090167"/>
<g fill="none" stroke="#ecce90" stroke-width=".24333">
<path d="m6.9904 288.02c0.37386-0.33725 0.44987-0.96966 1.1681-0.77995 0.40589 0.0175 0.61762-0.32544 0.95056-0.46073" style="mix-blend-mode:lighten"/>
<path d="m8.8677 289.74c0.52906-0.29061 1.3639-0.24927 1.5256-0.94936 0.11544-0.28494 0.31688-0.56289 0.64675-0.64581" style="mix-blend-mode:lighten"/>
<path d="m11.067 292.15c0.37699-0.64543 0.91298-1.2154 1.1038-1.9489 0.15033-0.39592 0.33921-0.79397 0.66622-1.0895"/>
</g>
<g fill-opacity=".22447">
<path d="m5.4117 282.09c-0.28227-0.18578-0.87249 0.0383-0.94444 0.36847-0.088964 0.40829 0.4729 1.0226 0.87246 0.90021 0.17716-0.0543 0.083928-0.3625 0.096953-0.54733 0.016913-0.24 0.176-0.58907-0.024972-0.72135z"/>
<path d="m8.5955 285.25c-0.28227-0.18578-0.87249 0.0383-0.94444 0.36847-0.08896 0.40829 0.4729 1.0226 0.87246 0.90021 0.17716-0.0543 0.083929-0.36251 0.096953-0.54733 0.016913-0.24 0.176-0.58907-0.024969-0.72135z"/>
<path d="m12.49 291.54c-0.28227-0.18579-0.87249 0.0383-0.94444 0.36846-0.08896 0.40829 0.4729 1.0226 0.87246 0.90022 0.17716-0.0543 0.08393-0.36251 0.09695-0.54734 0.01691-0.24 0.176-0.58907-0.02497-0.72134z"/>
</g>
</g>
</svg>
