<svg width="64" height="64" version="1.1" viewBox="0 0 16.933 16.933" xmlns="http://www.w3.org/2000/svg">
<g transform="translate(0 -280.07)">
<path d="m1.4231 285.28 3.236 1.7e-4 1.7912-2v10.508l-1.7912-2.0005h-3.236z" stroke-linecap="round" stroke-linejoin="bevel" stroke-width=".52917"/>
<g fill="none">
<g stroke="#000" stroke-linecap="round" stroke-linejoin="bevel" stroke-width="1.0583">
<path transform="rotate(-64.479)" d="m-250.05 131.79a6.7796 6.7796 0 0 1-3.8164 6.0977 6.7796 6.7796 0 0 1-7.1525-0.76747"/>
<path transform="rotate(-64.479)" d="m-252.98 131.38a4.0413 4.0413 0 0 1-2.275 3.6348 4.0413 4.0413 0 0 1-4.2636-0.45749"/>
<path transform="rotate(-64.479)" d="m-254.99 130.51a2.4351 2.4351 0 0 1-1.3708 2.1902 2.4351 2.4351 0 0 1-2.5691-0.27566"/>
</g>
<circle cx="8.4667" cy="288.53" r="6.8572" stroke="#f00" stroke-linecap="round" stroke-linejoin="bevel" stroke-width="1.0863"/>
<path d="m3.8272 293.17 9.279-9.279" stroke="#f00" stroke-width="2"/>
</g>
</g>
</svg>
