<svg width="64" height="64" version="1.1" viewBox="0 0 16.933 16.933" xmlns="http://www.w3.org/2000/svg">
<g transform="translate(0 -280.07)">
<path d="m3.8685 288.08 6.5882 4.8684s0.39594 2.9012 1.5178 3.028c1.1364 0.12844 3.0898-0.90943 2.1833-2.6467 2.0784 0.16608 2.5347-1.7506 2.1181-2.862-0.4684-1.2496-3.91-0.85953-3.91-0.85953l-5.5561-4.6438c0.047954-0.0213-0.1842-3.584-1.7427-3.5625-1.2735 0.0176-2.8252 1.0618-2.2191 3.2328-1.7097 0.21701-2.6807 0.99615-2.5612 2.2032 0.5614 2.2516 3.5818 1.2421 3.5818 1.2421z" fill="#d9a026" stroke="#000" stroke-width=".24783px"/>
<path d="m15.957 290.36c-0.66634-0.66942-1.8618-0.41453-2.8061-0.3936-0.88479 0.0196-2.3574-0.36314-2.6103 0.48494-0.22597 0.7576 1.0414 1.2235 1.7135 1.6398 0.63711 0.39459 1.3723 0.85995 2.1153 0.76164 0.70868-0.0938 1.472-0.57178 1.7594-1.2264 0.17124-0.39008 0.12885-0.96451-0.17168-1.2664z" fill-opacity=".090167"/>
<path d="m3.4329 286.85c0.89194-0.56391 1.3689-1.6328 2.4655-1.9277l0.12979-0.0408" fill="none" stroke="#ecce90" stroke-width=".26458" style="mix-blend-mode:lighten"/>
<path d="m4.8034 287.35c0.44891-0.65352 1.3023-0.70892 1.9594-1.0953l0.14014-0.0473" fill="none" stroke="#ecce90" stroke-width=".26458" style="mix-blend-mode:lighten"/>
<path d="m7.5096 288.57c-0.44899-0.3734-0.52425-1.1653-1.0618-1.3935-0.52301-0.22206-1.5023-0.33686-1.693 0.19839-0.15247 0.42803 0.65141 0.63519 0.94866 0.97884 0.38453 0.44457 0.51255 1.2303 1.0763 1.3968 0.61179 0.18076 1.7636-1e-3 1.8044-0.63775 0.025676-0.40048-0.76601-0.28626-1.0746-0.54285z" fill-opacity=".090167"/>
<g fill="none" stroke="#ecce90" stroke-width=".26458">
<path d="m6.5823 289.26c0.40651-0.36671 0.48916-1.0544 1.2701-0.84807 0.44134 0.019 0.67156-0.35387 1.0336-0.50097" style="mix-blend-mode:lighten"/>
<path d="m8.6235 291.14c0.57526-0.31599 1.483-0.27104 1.6588-1.0323 0.12552-0.30982 0.34456-0.61205 0.70323-0.70221" style="mix-blend-mode:lighten"/>
<path d="m11.015 293.75c0.40992-0.7018 0.99272-1.3215 1.2002-2.1191 0.16346-0.4305 0.36884-0.86332 0.72441-1.1847"/>
</g>
<g fill-opacity=".22447">
<path d="m4.8657 282.82c-0.30692-0.20201-0.9487 0.0416-1.0269 0.40065-0.096734 0.44395 0.51421 1.1119 0.94866 0.97884 0.19264-0.059 0.091258-0.39417 0.10542-0.59514 0.01839-0.26096 0.19137-0.64052-0.027153-0.78435z"/>
<path d="m8.3276 286.25c-0.30692-0.20201-0.9487 0.0416-1.0269 0.40065-0.096734 0.44395 0.51421 1.1119 0.94866 0.97884 0.19264-0.059 0.091258-0.39417 0.10542-0.59514 0.01839-0.26096 0.19137-0.64052-0.027153-0.78435z"/>
<path d="m12.562 293.09c-0.30692-0.20201-0.9487 0.0416-1.0269 0.40065-0.09673 0.44395 0.51421 1.1119 0.94866 0.97884 0.19264-0.059 0.09126-0.39417 0.10542-0.59514 0.01839-0.26096 0.19137-0.64052-0.02715-0.78435z"/>
</g>
</g>
</svg>
